<?xml version="1.0" standalone="no"?>
<!DOCTYPE svg PUBLIC "-//W3C//DTD SVG 20010904//EN"
 "http://www.w3.org/TR/2001/REC-SVG-20010904/DTD/svg10.dtd">
<svg version="1.0" xmlns="http://www.w3.org/2000/svg"
 width="900.000000pt" height="900.000000pt" viewBox="0 0 900.000000 900.000000"
 preserveAspectRatio="xMidYMid meet">
<metadata>
Created by potrace 1.10, written by Peter Selinger 2001-2011
</metadata>
<g transform="translate(0.000000,900.000000) scale(0.100000,-0.100000)"
fill="#000000" stroke="none">
<path d="M704 8278 c-2 -3 -4 -1710 -4 -3792 l0 -3786 3790 0 3790 0 0 3786
c0 2083 -1 3789 -3 3791 -7 6 -7569 8 -7573 1z m1366 -78 c280 0 5814 1 5860
1 36 0 100 0 144 1 72 1 80 -1 96 -22 10 -13 22 -40 27 -59 7 -30 9 -499 5
-1241 -1 -74 -1 -423 -2 -775 0 -352 -1 -651 -1 -665 0 -14 1 -142 2 -285 1
-143 0 -316 -1 -385 -1 -69 -1 -129 1 -135 1 -5 -1 -29 -5 -53 -4 -24 -4 -48
1 -55 6 -7 9 -752 7 -1845 -1 -1464 -4 -1839 -14 -1858 -7 -13 -29 -29 -49
-36 -28 -9 -818 -11 -3615 -10 -1969 1 -3581 4 -3584 6 -2 3 -15 1 -28 -4 -18
-7 -36 -4 -72 13 -41 19 -48 27 -54 62 -8 41 -11 204 -9 425 1 69 1 182 0 252
0 70 2 132 6 138 3 5 3 16 -2 22 -6 11 -16 1984 -11 2218 1 41 3 120 4 175 2
55 3 109 3 120 1 71 3 1283 2 1295 0 8 0 195 0 415 1 220 1 407 1 415 -6 211
-10 1751 -6 1784 7 44 10 49 48 66 32 13 72 18 166 19 68 1 125 2 126 4 1 1
211 1 466 -1 255 -1 474 -2 488 -2z"/>
<path d="M2913 6239 c-73 -22 -29 -29 180 -29 515 0 791 -8 822 -24 17 -9 36
-16 43 -16 6 0 12 -4 12 -8 0 -5 10 -13 23 -19 39 -18 107 -79 150 -136 12
-16 27 -34 32 -41 16 -19 33 -47 60 -101 14 -27 30 -57 34 -65 30 -52 71 -151
71 -173 0 -13 6 -30 14 -36 8 -7 17 -30 21 -52 4 -21 11 -41 16 -45 5 -3 9
-15 9 -28 0 -12 7 -31 15 -42 8 -10 15 -28 15 -40 0 -11 7 -29 15 -40 8 -10
15 -30 15 -42 0 -13 6 -36 13 -50 8 -15 21 -42 30 -60 9 -19 17 -42 17 -53 0
-11 14 -45 30 -76 17 -31 30 -62 30 -70 0 -8 6 -27 13 -41 8 -15 21 -44 30
-65 9 -20 23 -52 31 -70 8 -17 17 -42 21 -54 3 -13 11 -23 16 -23 5 0 9 -7 9
-15 0 -8 13 -41 29 -72 34 -71 87 -183 95 -203 4 -8 17 -35 31 -59 14 -24 25
-50 25 -57 0 -7 6 -19 13 -26 6 -7 20 -31 31 -53 10 -22 22 -47 27 -55 5 -8
14 -27 20 -42 6 -16 15 -28 20 -28 5 0 9 -7 9 -15 0 -15 39 -96 50 -105 4 -3
10 -12 13 -20 17 -36 63 -104 74 -107 8 -3 10 308 9 1161 l-1 1165 380 -3
c209 -2 400 -1 425 3 l45 7 -25 14 c-21 13 -90 15 -412 15 -378 0 -387 0 -415
-21 l-28 -21 -6 -1004 c-7 -1039 -9 -1149 -21 -1149 -4 0 -24 33 -44 73 -20
39 -40 74 -45 75 -5 2 -9 11 -9 20 0 9 -9 25 -20 37 -11 12 -28 44 -38 71 -10
27 -30 68 -45 91 -15 24 -27 51 -27 62 0 11 -5 23 -10 26 -13 8 -40 72 -40 96
0 10 -8 23 -19 28 -10 6 -22 26 -25 45 -4 19 -18 50 -31 70 -14 20 -25 41 -25
47 0 6 -13 37 -30 71 -16 33 -30 64 -30 69 0 5 -14 39 -31 76 -51 113 -59 133
-59 144 0 6 -7 27 -16 47 -9 21 -22 52 -30 70 -8 18 -14 41 -14 50 0 10 -6 26
-13 37 -8 11 -24 54 -36 95 -13 41 -27 80 -31 85 -11 17 -39 98 -46 138 -3 20
-10 39 -14 42 -5 3 -16 28 -25 55 -10 29 -23 50 -31 50 -8 0 -14 9 -14 21 0
12 -12 40 -27 63 -16 22 -34 53 -42 68 -8 15 -36 51 -62 80 -27 28 -49 56 -49
60 0 4 -6 8 -13 8 -7 0 -26 14 -42 30 -16 17 -34 30 -40 30 -7 0 -39 15 -71
32 l-59 33 -470 2 c-287 1 -483 -2 -502 -8z"/>
<path d="M5996 6168 c-5 -28 -9 -3537 -4 -3591 1 -10 6 -16 12 -14 7 2 13 48
16 113 9 198 1 3507 -8 3516 -6 6 -12 -4 -16 -24z"/>
<path d="M2846 6164 c-10 -25 -7 -122 3 -129 11 -6 31 56 31 96 0 33 -25 57
-34 33z"/>
<path d="M2933 5991 l-23 -19 33 -6 c17 -3 64 -8 102 -12 39 -4 81 -12 95 -19
14 -7 44 -21 67 -30 23 -10 54 -30 69 -46 15 -16 33 -29 38 -29 15 0 99 -106
119 -150 4 -8 16 -28 27 -45 10 -16 64 -120 120 -230 56 -110 105 -207 110
-215 4 -8 23 -46 42 -85 18 -38 43 -87 55 -107 13 -21 23 -45 23 -54 0 -9 9
-18 19 -21 11 -3 21 -17 25 -36 3 -16 16 -44 29 -61 12 -17 33 -52 45 -78 13
-27 26 -48 30 -48 4 0 16 -19 27 -43 11 -23 32 -55 47 -71 15 -17 28 -35 28
-41 0 -7 9 -22 20 -35 11 -13 20 -26 20 -30 0 -5 18 -30 40 -56 22 -27 40 -55
40 -64 0 -8 14 -28 30 -44 22 -21 27 -33 20 -40 -7 -7 -126 -13 -336 -16
l-326 -5 -24 -28 -24 -28 0 -797 c0 -506 4 -802 10 -812 28 -42 30 32 28 828
l-3 814 35 -6 c19 -3 182 -6 361 -6 285 0 328 -2 333 -15 3 -9 6 -385 6 -835
0 -476 4 -820 10 -820 25 0 32 126 31 549 -1 240 -2 450 -2 466 -3 147 7 487
13 491 4 3 8 18 8 35 0 38 31 40 51 2 13 -25 59 -92 93 -133 7 -9 16 -22 20
-30 8 -18 22 -40 59 -97 15 -24 27 -45 27 -47 0 -3 14 -25 30 -49 17 -25 30
-50 30 -56 0 -5 11 -27 25 -47 14 -21 28 -49 32 -63 3 -14 16 -44 29 -67 13
-22 24 -51 24 -63 0 -14 7 -25 19 -28 12 -3 21 -17 24 -39 3 -18 17 -56 31
-85 14 -28 26 -56 26 -62 0 -6 13 -38 28 -71 16 -34 36 -86 46 -116 18 -55 69
-172 87 -200 5 -8 13 -24 18 -35 5 -11 21 -37 35 -58 14 -21 26 -41 26 -45 0
-4 24 -30 53 -59 60 -59 131 -101 197 -116 57 -13 599 -15 602 -3 6 19 -63 26
-302 31 -274 5 -307 8 -366 36 -59 28 -151 120 -177 179 -4 8 -16 29 -27 45
-11 17 -22 37 -25 45 -3 8 -13 28 -21 43 -7 16 -14 34 -14 42 0 7 -7 18 -15
25 -8 7 -15 22 -15 34 0 12 -7 31 -15 42 -8 10 -15 28 -15 40 0 11 -7 29 -15
40 -8 10 -15 29 -15 41 0 12 -7 28 -15 37 -8 8 -15 23 -15 33 0 11 -7 28 -15
39 -8 10 -15 29 -15 40 0 12 -7 27 -15 34 -8 7 -15 23 -15 35 0 12 -6 28 -14
34 -8 7 -17 27 -20 46 -4 18 -10 35 -14 37 -4 2 -15 21 -26 43 -10 22 -22 47
-27 55 -4 8 -20 40 -35 70 -15 30 -29 57 -33 60 -10 8 -31 44 -42 73 -6 15
-15 27 -20 27 -5 0 -9 6 -9 14 0 8 -6 21 -12 28 -16 17 -36 48 -45 68 -3 8
-19 31 -35 51 -15 20 -28 41 -28 45 0 5 -14 25 -31 44 -16 19 -51 62 -76 95
-25 33 -59 72 -75 87 -15 15 -28 30 -28 33 0 3 -27 42 -60 85 -33 43 -60 83
-60 87 0 5 -8 16 -17 25 -28 26 -43 46 -43 57 0 5 -6 16 -12 23 -14 15 -17 19
-85 133 -26 44 -53 89 -60 100 -7 11 -17 32 -24 48 -6 15 -15 27 -20 27 -5 0
-9 9 -9 20 0 11 -7 23 -15 26 -8 4 -15 14 -15 24 0 10 -6 25 -13 32 -7 7 -21
29 -31 48 -11 19 -22 42 -27 50 -4 8 -18 35 -29 60 -12 25 -26 52 -31 60 -5 8
-14 27 -20 43 -6 15 -15 27 -20 27 -5 0 -9 6 -9 14 0 17 -161 340 -172 344 -4
2 -8 9 -8 16 0 7 -13 32 -30 54 -16 23 -30 46 -30 51 0 5 -30 40 -67 78 -69
71 -152 133 -179 133 -8 0 -25 6 -37 14 -12 7 -49 16 -82 19 -33 4 -73 9 -90
12 -21 4 -37 0 -52 -14z"/>
<path d="M3580 2543 l-25 -18 40 -7 c56 -10 657 -10 673 0 9 6 5 12 -15 22
-21 11 -101 15 -338 18 -286 3 -312 2 -335 -15z"/>
</g>
</svg>
